<?xml version="1.0" standalone="no"?>
<!DOCTYPE svg PUBLIC "-//W3C//DTD SVG 20010904//EN"
 "http://www.w3.org/TR/2001/REC-SVG-20010904/DTD/svg10.dtd">
<svg version="1.0" xmlns="http://www.w3.org/2000/svg"
 width="512.000000pt" height="512.000000pt" viewBox="0 0 512.000000 512.000000"
 preserveAspectRatio="xMidYMid meet">
<metadata>
Created by potrace 1.11, written by Peter Selinger 2001-2013
</metadata>
<g transform="translate(0.000000,512.000000) scale(0.100000,-0.100000)"
fill="#000000" stroke="none">
<path d="M650 4260 c25 -22 48 -40 53 -40 4 0 7 -5 7 -11 0 -6 -7 -8 -16 -5
-9 3 -12 2 -9 -5 4 -6 13 -8 21 -5 17 7 46 -3 39 -14 -3 -4 6 -11 20 -14 30
-8 34 -27 5 -21 -11 2 -18 0 -15 -5 3 -5 15 -7 26 -5 22 4 103 -48 92 -59 -3
-3 3 -6 15 -6 12 0 22 -3 22 -7 0 -5 25 -25 54 -47 38 -27 53 -44 51 -57 -3
-12 1 -16 11 -12 7 3 11 10 7 16 -3 6 12 -4 35 -23 23 -18 39 -36 37 -40 -3
-5 2 -11 11 -14 10 -4 13 -2 9 7 -4 6 4 1 17 -13 13 -14 28 -27 33 -30 6 -3 9
-9 7 -13 -1 -5 2 -6 7 -3 5 4 14 -2 20 -11 5 -10 13 -17 18 -17 14 3 43 -23
35 -31 -4 -4 1 -5 10 -2 10 3 20 1 24 -5 4 -6 3 -8 -4 -4 -6 3 -14 1 -18 -6
-4 -7 -4 -10 0 -6 4 3 21 2 37 -4 22 -8 27 -13 19 -23 -8 -9 -4 -11 15 -7 28
5 30 1 14 -31 -9 -20 -9 -21 4 -4 13 16 16 16 30 2 9 -8 21 -15 27 -15 6 0 9
-4 6 -9 -3 -5 5 -12 19 -15 14 -4 25 -11 25 -17 0 -6 -8 -6 -22 1 -21 10 -22
10 -5 -4 11 -8 25 -12 33 -9 8 3 14 0 14 -7 0 -6 5 -8 13 -4 9 6 9 4 -1 -8
-10 -13 -10 -18 -1 -24 8 -4 9 -3 5 4 -4 7 -2 12 4 12 15 0 100 -61 100 -72 0
-4 6 -8 14 -8 8 0 25 -12 38 -27 13 -16 31 -29 38 -31 18 -4 31 -23 24 -34 -3
-4 2 -5 10 -2 9 3 16 1 16 -6 0 -6 5 -8 12 -4 6 4 8 3 5 -3 -4 -6 3 -14 16
-17 12 -3 45 -27 72 -52 28 -26 52 -47 55 -48 3 0 4 -4 2 -8 -1 -5 6 -8 15 -8
22 -1 55 -25 46 -33 -3 -4 0 -7 7 -7 19 0 81 -50 75 -60 -3 -5 0 -12 6 -16 8
-4 9 -3 5 4 -4 7 -3 12 3 12 12 0 42 -41 36 -50 -2 -4 2 -7 10 -7 12 0 12 3 2
15 -10 13 -9 14 10 2 11 -8 19 -20 16 -27 -4 -9 0 -11 11 -7 11 4 16 0 17 -12
0 -11 3 -14 5 -7 4 9 10 8 22 -2 9 -8 26 -21 37 -30 17 -13 18 -16 5 -25 -12
-9 -10 -10 9 -5 21 6 23 5 17 -11 -6 -15 -4 -16 5 -7 7 7 16 8 23 2 6 -5 37
-29 68 -53 32 -23 54 -47 50 -51 -4 -5 1 -5 12 -1 14 5 17 2 12 -9 -3 -8 -2
-14 2 -13 4 1 19 -5 35 -12 21 -10 26 -18 21 -34 -4 -15 -3 -17 4 -7 8 11 14
10 36 -4 15 -10 29 -15 33 -11 3 3 12 1 19 -5 10 -8 11 -5 7 13 -4 18 -3 20 6
8 9 -13 11 -12 11 4 0 12 5 16 15 13 8 -4 17 -1 21 5 4 7 3 8 -4 4 -7 -4 -12
-4 -12 1 0 4 20 22 45 38 24 17 45 34 45 39 0 6 7 1 15 -10 14 -18 14 -18 9 3
-4 15 0 25 14 32 11 6 22 7 26 4 3 -3 6 2 6 11 0 15 6 17 27 13 26 -5 27 -4 8
10 -19 14 -18 14 12 10 18 -3 35 -1 38 3 3 5 -4 7 -15 5 -11 -2 -20 0 -20 6 0
5 5 9 11 9 5 0 24 13 41 29 18 17 38 27 46 23 10 -3 13 -1 8 6 -4 8 -1 12 10
12 10 0 14 3 11 6 -9 10 122 106 133 99 6 -4 9 -1 8 6 -2 6 3 14 11 17 10 3
12 0 8 -12 -9 -23 0 -20 14 5 8 17 8 20 -1 14 -8 -5 -11 -3 -8 6 3 8 11 13 17
11 6 -1 14 5 17 13 4 8 10 15 16 15 5 0 6 -6 2 -12 -4 -8 -3 -10 2 -5 5 5 9
14 9 20 0 7 8 11 18 11 9 -1 15 1 12 5 -2 4 5 15 16 24 10 9 19 14 19 10 0 -4
7 3 16 15 9 14 22 21 31 18 8 -3 12 -2 9 3 -8 12 31 44 44 36 6 -3 9 -3 8 2
-2 4 2 10 7 13 6 2 21 15 33 27 13 13 42 31 63 40 22 8 38 18 35 20 -2 3 -15
-1 -28 -7 -18 -9 -16 -6 7 14 17 14 35 25 42 26 7 0 16 6 20 13 4 7 28 28 53
47 25 19 41 28 35 19 -5 -8 1 -2 15 13 28 31 36 34 43 16 2 -7 3 -6 2 3 -3 17
29 51 38 42 3 -3 3 -12 0 -21 -4 -10 -3 -14 2 -10 4 4 8 16 9 27 0 10 24 37
52 60 48 38 52 39 69 23 18 -16 18 -16 6 0 -15 20 -5 42 16 34 8 -3 11 -2 8 3
-7 12 35 42 47 35 5 -3 7 0 6 8 -2 8 6 13 20 12 15 0 19 3 13 9 -7 7 -2 16 14
28 13 11 26 19 30 19 3 0 20 14 38 30 23 22 39 29 57 26 14 -3 19 -3 13 0 -19
8 -16 27 3 20 8 -3 12 -2 9 3 -3 6 12 22 32 37 21 15 50 39 65 52 15 14 33 22
42 19 9 -4 13 -1 10 6 -2 7 10 23 27 36 18 13 28 17 24 10 -4 -8 4 0 19 16 14
17 25 27 26 24 0 -3 15 7 33 22 17 16 48 42 67 59 l35 29 -1960 0 -1960 0 45
-39z"/>
<path d="M4425 4211 c-3 -5 -2 -12 3 -15 5 -3 9 1 9 9 0 17 -3 19 -12 6z"/>
<path d="M710 4166 c0 -2 7 -7 16 -10 8 -3 12 -2 9 4 -6 10 -25 14 -25 6z"/>
<path d="M380 4097 c-5 -928 2 -2943 10 -2951 7 -7 10 -6 10 4 0 7 3 10 7 7 3
-4 12 2 20 13 8 11 20 20 27 20 8 0 17 7 20 16 4 9 9 14 13 10 3 -3 13 3 21
15 8 11 20 18 29 15 8 -3 12 -2 9 2 -7 12 33 44 45 37 5 -4 8 -1 7 7 -2 7 5
12 14 12 10 -1 16 3 15 10 -1 6 6 10 15 10 10 -1 14 4 11 12 -5 12 8 19 30 15
4 0 6 4 5 11 -2 7 4 12 12 13 8 1 14 6 13 12 -1 6 13 19 32 29 19 10 35 22 35
26 0 5 7 8 16 8 8 0 12 5 9 10 -3 6 1 10 10 10 9 0 13 -4 10 -10 -3 -6 1 -7
10 -3 13 5 14 7 3 14 -12 8 -4 13 15 10 5 -1 6 3 2 9 -3 5 5 15 19 21 14 7 23
15 21 19 -6 10 24 22 36 14 5 -3 8 0 7 7 -2 6 3 14 11 17 9 3 11 0 6 -9 -5 -8
-4 -11 1 -6 5 5 9 12 9 15 0 13 40 52 52 52 7 0 13 5 13 10 0 6 7 10 16 10 8
0 13 4 10 9 -7 11 22 23 35 16 5 -4 6 2 2 11 -4 12 -3 15 5 10 7 -4 12 -2 12
4 0 6 8 14 18 17 9 4 25 15 35 26 9 11 17 16 17 12 0 -5 6 0 14 10 11 16 17
17 29 7 12 -10 17 -10 23 -1 4 7 3 9 -4 5 -6 -3 -13 -2 -16 3 -3 5 14 25 38
45 30 24 46 32 49 23 4 -7 6 -6 6 4 1 17 46 52 67 52 7 0 10 7 6 16 -3 9 -2
13 2 10 4 -4 20 5 35 20 30 28 76 61 88 63 5 1 16 12 27 25 15 20 21 22 34 11
13 -11 14 -11 8 0 -9 15 12 45 25 36 5 -3 9 0 9 5 0 6 5 11 11 11 5 0 7 -6 3
-12 -4 -8 -3 -10 2 -5 5 5 9 12 9 15 0 8 43 52 51 52 3 0 2 -5 -2 -12 -5 -7
-3 -8 5 -4 7 5 10 10 7 13 -6 6 43 52 57 54 4 1 11 2 16 3 5 0 13 5 18 10 5 5
3 6 -4 2 -7 -4 -13 -3 -13 2 0 5 16 17 35 28 19 10 35 23 35 28 0 5 2 7 5 4 3
-3 21 10 41 28 19 19 42 34 50 34 9 0 12 5 8 12 -4 7 -3 8 4 4 7 -4 12 -3 12
2 0 4 13 18 30 30 25 19 29 20 24 5 -4 -10 3 -3 15 14 12 20 26 30 35 27 8 -3
17 0 21 5 3 6 11 8 17 5 7 -4 8 -2 4 5 -5 7 -13 8 -20 4 -6 -4 2 4 19 19 16
15 35 28 40 28 6 0 16 10 24 22 13 20 14 21 26 5 11 -16 13 -16 19 -2 3 9 2
13 -4 10 -17 -10 -11 12 7 26 9 8 14 9 10 3 -3 -6 0 -11 8 -11 8 0 12 4 9 9
-8 12 26 49 37 42 5 -3 9 0 9 6 0 6 4 9 8 6 4 -2 9 5 10 18 1 12 -7 27 -17 33
-15 9 -320 246 -526 407 -16 13 -77 61 -135 105 -58 45 -112 87 -120 94 -8 7
-44 35 -80 62 -36 27 -72 55 -80 62 -8 7 -124 97 -257 200 -133 103 -308 240
-389 303 -81 63 -190 148 -241 187 l-93 73 0 -53z"/>
<path d="M4135 3686 c-473 -362 -1513 -1156 -1649 -1259 -43 -33 -224 -172
-276 -212 -37 -29 -135 -103 -400 -305 -53 -40 -810 -618 -900 -688 -52 -40
-165 -125 -250 -190 -85 -64 -157 -120 -160 -123 -3 -3 -32 -25 -64 -50 -52
-38 -57 -44 -37 -47 14 -2 21 -9 17 -17 -3 -9 0 -12 9 -8 8 3 13 9 10 13 -3 5
8 8 25 8 16 -1 30 -5 30 -10 0 -4 5 -8 11 -8 5 0 8 4 5 8 -3 5 13 9 34 9 22 0
40 -4 40 -9 0 -4 5 -8 11 -8 5 0 8 4 5 8 -3 5 13 9 34 9 22 0 40 -4 40 -9 0
-4 5 -8 11 -8 5 0 7 4 4 10 -3 5 -1 10 4 10 6 0 11 -4 11 -10 0 -5 5 -10 11
-10 5 0 8 4 5 8 -8 13 78 11 86 -2 5 -8 8 -7 8 2 0 6 5 12 11 12 5 0 7 -4 4
-10 -3 -5 -1 -10 4 -10 6 0 11 4 11 9 0 6 12 9 28 7 19 -1 26 -7 24 -19 -2 -9
2 -17 7 -17 5 0 8 9 6 20 -2 11 0 20 6 20 5 0 9 -6 9 -12 0 -9 2 -10 8 -2 4 8
52 11 139 11 112 0 133 -3 136 -16 4 -13 5 -13 6 2 0 9 6 17 12 17 6 0 8 -10
5 -22 l-6 -23 11 23 c7 12 16 22 21 22 5 0 6 -5 2 -12 -5 -8 -3 -8 7 -2 26 16
88 13 92 -5 4 -14 5 -14 6 2 0 9 6 17 12 17 6 0 8 -9 4 -20 -4 -11 -2 -20 4
-20 6 0 10 3 10 8 -3 18 2 32 12 32 5 0 7 -6 3 -13 -6 -9 -4 -9 7 -1 19 15
191 15 182 0 -4 -6 2 -4 12 4 14 11 19 12 22 3 3 -7 9 -13 14 -13 6 0 7 5 4
10 -3 6 -1 10 4 10 6 0 11 -4 11 -10 0 -5 5 -10 11 -10 5 0 8 4 5 8 -8 13 78
11 86 -2 5 -8 8 -7 8 2 0 6 5 12 11 12 5 0 7 -4 4 -10 -3 -5 -1 -10 4 -10 6 0
11 4 11 9 0 6 12 9 27 7 20 -1 27 -7 25 -19 -2 -9 2 -17 7 -17 5 0 8 9 6 20
-2 11 0 20 6 20 5 0 9 -6 9 -12 0 -10 2 -10 9 0 4 8 19 12 32 10 17 -2 23 -8
21 -23 -2 -16 -1 -17 7 -5 5 8 8 17 6 21 -3 3 6 7 20 7 14 0 22 -4 19 -9 -3
-5 0 -9 5 -9 6 0 11 5 11 10 0 6 5 10 11 10 5 0 7 -4 4 -10 -3 -5 -1 -10 4
-10 6 0 11 4 11 9 0 5 11 9 25 9 14 0 25 -4 25 -9 0 -5 5 -9 11 -9 5 0 8 4 5
8 -3 5 13 9 34 9 22 0 40 -4 40 -9 0 -4 5 -8 11 -8 5 0 8 4 5 9 -3 5 11 8 32
8 31 -2 37 -5 34 -22 -2 -16 -1 -17 7 -5 5 8 8 17 6 21 -3 3 6 7 20 7 14 0 22
-4 19 -9 -3 -5 0 -9 5 -9 6 0 11 5 11 10 0 6 5 10 11 10 5 0 7 -4 4 -10 -3 -5
-1 -10 4 -10 6 0 11 4 11 9 0 5 11 9 25 9 14 0 25 -4 25 -9 0 -5 5 -9 11 -9 5
0 8 4 5 8 -3 5 13 9 34 9 22 0 40 -4 40 -9 0 -4 5 -8 11 -8 5 0 8 4 5 8 -3 5
60 9 139 9 123 0 145 -3 148 -16 4 -13 5 -13 6 2 0 9 6 17 12 17 6 0 8 -10 5
-22 l-6 -23 11 23 c7 12 16 22 21 22 5 0 6 -5 2 -12 -5 -8 -3 -8 7 -2 26 16
88 13 92 -5 4 -14 5 -14 6 2 0 9 6 17 12 17 6 0 8 -9 4 -20 -4 -11 -2 -20 4
-20 6 0 10 3 10 8 -3 18 2 32 12 32 5 0 7 -6 3 -12 -6 -10 -4 -10 7 -2 9 8 83
11 221 11 181 0 208 -2 211 -16 4 -13 5 -13 6 2 0 9 6 17 12 17 6 0 8 -10 5
-22 l-6 -23 11 23 c7 12 16 22 21 22 5 0 6 -5 2 -12 -5 -8 -3 -8 7 -2 26 16
88 13 92 -5 4 -14 5 -14 6 2 0 9 6 17 12 17 6 0 8 -9 4 -20 -4 -11 -2 -20 4
-20 6 0 10 3 10 8 -3 18 2 32 12 32 5 0 7 -6 3 -12 -6 -10 -4 -10 7 -2 8 7 53
11 114 10 94 -1 100 -2 97 -21 -2 -16 -1 -17 7 -5 5 8 8 17 6 21 -3 3 6 7 20
7 14 0 22 -4 19 -9 -3 -5 0 -9 5 -9 6 0 11 5 11 10 0 6 5 10 11 10 5 0 7 -4 4
-10 -3 -5 -1 -10 4 -10 6 0 11 4 11 9 0 5 11 9 25 9 14 0 25 -4 25 -9 0 -5 5
-9 11 -9 5 0 8 4 5 8 -3 5 13 9 34 9 22 0 40 -4 40 -9 0 -4 5 -8 11 -8 5 0 8
4 5 9 -3 5 11 8 32 8 31 -2 37 -5 34 -22 -2 -16 -1 -17 7 -5 5 8 8 17 6 21 -3
3 6 7 20 7 14 0 22 -4 19 -9 -3 -5 0 -9 5 -9 6 0 11 5 11 10 0 6 5 10 11 10 5
0 7 -4 4 -10 -3 -5 -1 -10 4 -10 6 0 11 4 11 9 0 5 11 9 25 9 14 0 25 -4 25
-9 0 -5 5 -9 11 -9 5 0 8 4 5 8 -3 5 13 9 34 9 22 0 40 -4 40 -9 0 -4 5 -8 11
-8 5 0 8 4 5 8 -3 5 13 9 34 9 22 0 40 -4 40 -9 0 -4 5 -8 11 -8 5 0 7 5 4 10
-3 6 -1 10 4 10 6 0 11 -4 11 -10 0 -5 5 -10 11 -10 5 0 8 4 5 8 -8 13 78 11
86 -2 6 -8 8 -7 8 1 0 8 11 11 29 9 16 -2 35 0 41 4 9 5 12 417 12 1665 -1
911 -2 1658 -4 1660 -2 1 -268 -201 -593 -449z"/>
<path d="M4314 4118 c-4 -5 -3 -12 0 -15 3 -4 6 -1 6 6 0 7 4 10 9 6 5 -3 12
-2 15 3 3 5 -2 9 -10 9 -8 0 -17 -4 -20 -9z"/>
<path d="M810 4100 c0 -5 5 -10 11 -10 5 0 7 5 4 10 -3 6 -8 10 -11 10 -2 0
-4 -4 -4 -10z"/>
<path d="M4255 4080 c-3 -5 -1 -10 4 -10 6 0 11 5 11 10 0 6 -2 10 -4 10 -3 0
-8 -4 -11 -10z"/>
<path d="M886 4043 c-6 -14 -5 -15 5 -6 7 7 10 15 7 18 -3 3 -9 -2 -12 -12z"/>
<path d="M4196 4022 c-2 -4 4 -8 14 -8 10 0 16 4 14 8 -3 4 -9 8 -14 8 -5 0
-11 -4 -14 -8z"/>
<path d="M4165 4009 c-4 -6 -5 -12 -2 -15 2 -3 7 2 10 11 7 17 1 20 -8 4z"/>
<path d="M950 3986 c0 -2 9 -6 20 -9 11 -3 18 -1 14 4 -5 9 -34 13 -34 5z"/>
<path d="M4075 3929 c-4 -6 -5 -12 -2 -15 2 -3 7 2 10 11 7 17 1 20 -8 4z"/>
<path d="M1075 3910 c-3 -5 -1 -10 4 -10 6 0 11 5 11 10 0 6 -2 10 -4 10 -3 0
-8 -4 -11 -10z"/>
<path d="M3830 3749 c0 -5 5 -7 10 -4 6 3 10 8 10 11 0 2 -4 4 -10 4 -5 0 -10
-5 -10 -11z"/>
<path d="M3791 3727 c-8 -10 -7 -14 4 -14 8 0 12 4 9 8 -2 4 2 10 8 12 8 4 9
6 2 6 -6 1 -17 -5 -23 -12z"/>
<path d="M3587 3567 c-3 -8 0 -14 7 -14 7 0 13 6 13 14 0 7 -4 13 -8 13 -4 0
-9 -6 -12 -13z"/>
<path d="M1515 3560 c-3 -6 1 -7 9 -4 18 7 21 14 7 14 -6 0 -13 -4 -16 -10z"/>
<path d="M1550 3551 c0 -5 7 -12 16 -15 14 -5 15 -4 4 9 -14 17 -20 19 -20 6z"/>
<path d="M1628 3493 c6 -2 10 -8 8 -12 -3 -4 1 -8 9 -8 11 0 12 4 4 14 -6 7
-17 13 -23 12 -7 0 -6 -2 2 -6z"/>
<path d="M3347 3379 c7 -7 15 -10 18 -7 3 3 -2 9 -12 12 -14 6 -15 5 -6 -5z"/>
<path d="M1790 3360 c0 -5 5 -10 10 -10 6 0 10 5 10 10 0 6 -4 10 -10 10 -5 0
-10 -4 -10 -10z"/>
<path d="M1816 3342 c-3 -5 1 -9 9 -9 8 0 12 4 9 9 -3 4 -7 8 -9 8 -2 0 -6 -4
-9 -8z"/>
<path d="M1855 3300 c-3 -6 1 -7 9 -4 18 7 21 14 7 14 -6 0 -13 -4 -16 -10z"/>
<path d="M3255 3300 c-3 -5 -1 -10 4 -10 6 0 11 5 11 10 0 6 -2 10 -4 10 -3 0
-8 -4 -11 -10z"/>
<path d="M1938 3253 c6 -2 9 -10 6 -15 -4 -7 -2 -8 5 -4 13 9 5 26 -12 25 -9
0 -8 -2 1 -6z"/>
<path d="M2001 3203 c7 -12 15 -20 18 -17 3 2 -3 12 -13 22 -17 16 -18 16 -5
-5z"/>
<path d="M3010 3115 c0 -8 2 -15 4 -15 2 0 6 7 10 15 3 8 1 15 -4 15 -6 0 -10
-7 -10 -15z"/>
<path d="M2190 3056 c0 -3 9 -10 20 -16 11 -6 20 -8 20 -6 0 3 -9 10 -20 16
-11 6 -20 8 -20 6z"/>
<path d="M2354 2921 c0 -11 4 -17 8 -15 4 3 8 12 8 20 0 8 -4 14 -8 14 -4 0
-8 -9 -8 -19z"/>
<path d="M2700 2896 c0 -2 7 -7 16 -10 8 -3 12 -2 9 4 -6 10 -25 14 -25 6z"/>
<path d="M2664 2869 c-3 -6 -3 -13 0 -16 3 -4 6 -1 6 5 0 6 7 9 15 6 8 -4 15
-4 15 -1 0 11 -30 16 -36 6z"/>
<path d="M2450 2846 c0 -2 7 -7 16 -10 8 -3 12 -2 9 4 -6 10 -25 14 -25 6z"/>
<path d="M1903 2293 c-16 -6 -17 -29 -1 -39 7 -5 8 -3 3 6 -5 8 -1 18 10 27
19 13 12 16 -12 6z"/>
<path d="M1810 2220 c0 -5 5 -10 11 -10 5 0 7 5 4 10 -3 6 -8 10 -11 10 -2 0
-4 -4 -4 -10z"/>
<path d="M1755 2169 c-4 -6 -5 -12 -2 -15 2 -3 7 2 10 11 7 17 1 20 -8 4z"/>
<path d="M1680 2100 c-9 -6 -10 -10 -3 -10 6 0 15 5 18 10 8 12 4 12 -15 0z"/>
<path d="M1595 2060 c-3 -5 -1 -10 4 -10 6 0 11 5 11 10 0 6 -2 10 -4 10 -3 0
-8 -4 -11 -10z"/>
<path d="M1550 2026 c0 -2 7 -7 16 -10 8 -3 12 -2 9 4 -6 10 -25 14 -25 6z"/>
<path d="M1506 1992 c-3 -5 1 -9 9 -9 8 0 12 4 9 9 -3 4 -7 8 -9 8 -2 0 -6 -4
-9 -8z"/>
<path d="M1432 1938 c-7 -7 -12 -16 -12 -21 0 -5 7 -1 16 8 9 9 14 18 12 20
-2 3 -10 -1 -16 -7z"/>
<path d="M1155 1700 c-3 -5 -1 -10 4 -10 6 0 11 5 11 10 0 6 -2 10 -4 10 -3 0
-8 -4 -11 -10z"/>
<path d="M880 1500 c-9 -6 -10 -10 -3 -10 6 0 15 5 18 10 8 12 4 12 -15 0z"/>
<path d="M730 1379 c0 -5 5 -7 10 -4 6 3 10 8 10 11 0 2 -4 4 -10 4 -5 0 -10
-5 -10 -11z"/>
<path d="M476 1182 c-3 -5 1 -9 9 -9 8 0 12 4 9 9 -3 4 -7 8 -9 8 -2 0 -6 -4
-9 -8z"/>
<path d="M634 789 c1 -7 10 -13 19 -15 9 -1 15 2 11 7 -3 5 -9 7 -14 4 -4 -3
-11 0 -13 5 -3 6 -4 5 -3 -1z"/>
<path d="M777 793 c-10 -9 -9 -23 1 -23 5 0 9 7 9 15 0 17 -1 18 -10 8z"/>
<path d="M950 793 c8 -3 22 -11 30 -17 13 -10 13 -9 1 7 -7 9 -21 17 -30 16
-13 0 -14 -1 -1 -6z"/>
<path d="M990 796 c0 -3 9 -10 20 -16 11 -6 20 -8 20 -6 0 3 -9 10 -20 16 -11
6 -20 8 -20 6z"/>
<path d="M1031 797 c2 -1 13 -9 24 -17 19 -14 19 -14 6 3 -7 9 -18 17 -24 17
-6 0 -8 -1 -6 -3z"/>
<path d="M1070 796 c0 -3 9 -10 20 -16 11 -6 20 -8 20 -6 0 3 -9 10 -20 16
-11 6 -20 8 -20 6z"/>
<path d="M1118 793 c7 -3 16 -2 19 1 4 3 -2 6 -13 5 -11 0 -14 -3 -6 -6z"/>
<path d="M1154 787 c-4 -7 -4 -9 1 -5 4 4 14 3 22 -3 8 -7 13 -8 13 -1 0 15
-28 23 -36 9z"/>
<path d="M1430 793 c8 -3 22 -11 30 -17 13 -10 13 -9 1 7 -7 9 -21 17 -30 16
-13 0 -14 -1 -1 -6z"/>
<path d="M1470 796 c0 -3 9 -10 20 -16 11 -6 20 -8 20 -6 0 3 -9 10 -20 16
-11 6 -20 8 -20 6z"/>
<path d="M1511 797 c2 -1 13 -9 24 -17 19 -14 19 -14 6 3 -7 9 -18 17 -24 17
-6 0 -8 -1 -6 -3z"/>
<path d="M1550 796 c0 -3 9 -10 20 -16 11 -6 20 -8 20 -6 0 3 -9 10 -20 16
-11 6 -20 8 -20 6z"/>
<path d="M1737 793 c-10 -9 -9 -23 1 -23 5 0 9 7 9 15 0 17 -1 18 -10 8z"/>
<path d="M1908 793 c6 -2 9 -10 6 -15 -4 -7 -2 -8 4 -4 18 11 14 26 -5 25 -11
0 -13 -3 -5 -6z"/>
<path d="M2140 789 c0 -5 -4 -8 -9 -4 -5 3 -12 1 -15 -4 -4 -5 2 -8 11 -7 15
3 33 26 19 26 -3 0 -6 -5 -6 -11z"/>
<path d="M2230 790 c0 -5 5 -10 10 -10 6 0 10 5 10 10 0 6 -4 10 -10 10 -5 0
-10 -4 -10 -10z"/>
<path d="M2460 789 c0 -5 -4 -8 -9 -4 -5 3 -12 1 -15 -4 -4 -5 2 -8 11 -7 15
3 33 26 19 26 -3 0 -6 -5 -6 -11z"/>
<path d="M2550 788 c0 -6 3 -8 7 -5 3 4 13 1 22 -6 14 -11 14 -10 2 6 -15 20
-31 22 -31 5z"/>
<path d="M2590 796 c0 -3 9 -10 20 -16 11 -6 20 -8 20 -6 0 3 -9 10 -20 16
-11 6 -20 8 -20 6z"/>
<path d="M2631 797 c2 -1 13 -9 24 -17 19 -14 19 -14 6 3 -7 9 -18 17 -24 17
-6 0 -8 -1 -6 -3z"/>
<path d="M2670 796 c0 -3 9 -10 20 -16 11 -6 20 -8 20 -6 0 3 -9 10 -20 16
-11 6 -20 8 -20 6z"/>
<path d="M2718 793 c7 -3 16 -2 19 1 4 3 -2 6 -13 5 -11 0 -14 -3 -6 -6z"/>
<path d="M2754 787 c-4 -7 -4 -9 1 -5 4 4 14 3 22 -3 8 -7 13 -8 13 -1 0 15
-28 23 -36 9z"/>
<path d="M3030 793 c8 -3 22 -11 30 -17 13 -10 13 -9 1 7 -7 9 -21 17 -30 16
-13 0 -14 -1 -1 -6z"/>
<path d="M3070 796 c0 -3 9 -10 20 -16 11 -6 20 -8 20 -6 0 3 -9 10 -20 16
-11 6 -20 8 -20 6z"/>
<path d="M3111 797 c2 -1 13 -9 24 -17 19 -14 19 -14 6 3 -7 9 -18 17 -24 17
-6 0 -8 -1 -6 -3z"/>
<path d="M3150 796 c0 -3 9 -10 20 -16 11 -6 20 -8 20 -6 0 3 -9 10 -20 16
-11 6 -20 8 -20 6z"/>
<path d="M3191 797 c2 -1 13 -9 24 -17 19 -14 19 -14 6 3 -7 9 -18 17 -24 17
-6 0 -8 -1 -6 -3z"/>
<path d="M3230 796 c0 -3 9 -10 20 -16 11 -6 20 -8 20 -6 0 3 -9 10 -20 16
-11 6 -20 8 -20 6z"/>
<path d="M3271 797 c2 -1 13 -9 24 -17 19 -14 19 -14 6 3 -7 9 -18 17 -24 17
-6 0 -8 -1 -6 -3z"/>
<path d="M3310 796 c0 -3 9 -10 20 -16 11 -6 20 -8 20 -6 0 3 -9 10 -20 16
-11 6 -20 8 -20 6z"/>
<path d="M3358 793 c7 -3 16 -2 19 1 4 3 -2 6 -13 5 -11 0 -14 -3 -6 -6z"/>
<path d="M3394 787 c-4 -7 -4 -9 1 -5 4 4 14 3 22 -3 8 -7 13 -8 13 -1 0 15
-28 23 -36 9z"/>
<path d="M3670 793 c8 -3 22 -11 30 -17 13 -10 13 -9 1 7 -7 9 -21 17 -30 16
-13 0 -14 -1 -1 -6z"/>
<path d="M3710 796 c0 -3 9 -10 20 -16 11 -6 20 -8 20 -6 0 3 -9 10 -20 16
-11 6 -20 8 -20 6z"/>
<path d="M3751 797 c2 -1 13 -9 24 -17 19 -14 19 -14 6 3 -7 9 -18 17 -24 17
-6 0 -8 -1 -6 -3z"/>
<path d="M3790 796 c0 -3 9 -10 20 -16 11 -6 20 -8 20 -6 0 3 -9 10 -20 16
-11 6 -20 8 -20 6z"/>
<path d="M3835 790 c3 -5 8 -10 11 -10 2 0 4 5 4 10 0 6 -5 10 -11 10 -5 0 -7
-4 -4 -10z"/>
<path d="M4060 789 c0 -5 -4 -8 -9 -4 -5 3 -12 1 -15 -4 -4 -5 2 -8 11 -7 15
3 33 26 19 26 -3 0 -6 -5 -6 -11z"/>
<path d="M4150 790 c0 -5 5 -10 10 -10 6 0 10 5 10 10 0 6 -4 10 -10 10 -5 0
-10 -4 -10 -10z"/>
<path d="M4380 789 c0 -5 -4 -8 -9 -4 -5 3 -12 1 -15 -4 -4 -5 2 -8 11 -7 15
3 33 26 19 26 -3 0 -6 -5 -6 -11z"/>
<path d="M4474 789 c1 -7 10 -13 19 -15 9 -1 15 2 11 7 -3 5 -9 7 -14 4 -4 -3
-11 0 -13 5 -3 6 -4 5 -3 -1z"/>
<path d="M4617 793 c-10 -9 -9 -23 1 -23 5 0 9 7 9 15 0 17 -1 18 -10 8z"/>
<path d="M4687 785 c3 -8 9 -12 14 -9 12 7 11 11 -5 17 -10 4 -13 1 -9 -8z"/>
<path d="M1606 782 c-3 -5 1 -9 9 -9 8 0 12 4 9 9 -3 4 -7 8 -9 8 -2 0 -6 -4
-9 -8z"/>
<path d="M4656 782 c-3 -5 1 -9 9 -9 8 0 12 4 9 9 -3 4 -7 8 -9 8 -2 0 -6 -4
-9 -8z"/>
</g>
</svg>
